<svg xmlns:xlink="http://www.w3.org/1999/xlink" width="30" height="30" viewBox="0 0 83 83" fill="none" xmlns="http://www.w3.org/2000/svg">
                            <path d="M35.8701 20.2324C36.9037 20.1103 40.2042 20.1112 43.2041 20.2353C48.5793 20.4576 48.6938 20.5 51.0635 23.1396C52.8362 25.1135 54.0022 25.8192 55.4961 25.8212C58.2213 25.8249 61.6439 28.0118 62.9863 30.6074C63.9033 32.3815 64.0484 34.7832 63.8711 45.2441C63.6631 57.5071 63.6245 57.7946 61.9541 59.6035C58.8194 62.9971 57.0546 63.3183 41.5352 63.3183C24.8984 63.3183 22.8723 62.8636 20.4717 58.5927C19.1271 56.2009 19 54.9883 19 44.624C19 31.7827 19.5716 29.4239 23.2207 27.1992C24.4616 26.4425 26.4228 25.8227 27.5791 25.8212C29.2039 25.8192 30.1703 25.2094 31.8359 23.1367C33.2186 21.4158 34.664 20.3756 35.8701 20.2324ZM41.5 33.0625C35.6751 33.0625 30.9532 37.7845 30.9531 43.6093C30.9531 49.4342 35.6751 54.1562 41.5 54.1562C47.3249 54.1562 52.0469 49.4342 52.0469 43.6093C52.0468 37.7845 47.3249 33.0625 41.5 33.0625ZM41.5 36.5781C45.3832 36.5781 48.5312 39.7261 48.5312 43.6093C48.5312 47.4926 45.3833 50.6406 41.5 50.6406C37.6167 50.6406 34.4688 47.4926 34.4688 43.6093C34.4688 39.7261 37.6168 36.5781 41.5 36.5781Z" fill="#FFFFFF"></path>
                        </svg>