<svg xmlns:xlink="http://www.w3.org/1999/xlink" xmlns="http://www.w3.org/2000/svg" aria-label="Copiar" fill="currentColor" height="18" role="img" viewBox="0 0 24 24" width="18"><title fill="#C8C8C8">Copiar</title><path d="m20.12 4.707-2.826-2.828A3.026 3.026 0 0 0 15.17 1h-5.167A3.007 3.007 0 0 0 7 4.004V5h-.996A3.007 3.007 0 0 0 3 8.004v11.992A3.007 3.007 0 0 0 6.004 23h7.992A3.007 3.007 0 0 0 17 19.996V19h.996A3.007 3.007 0 0 0 21 15.996V6.83a2.98 2.98 0 0 0-.88-2.123ZM18.586 6 16 6.001V3.414L18.586 6ZM15 19.996C15 20.55 14.55 21 13.996 21H6.004C5.45 21 5 20.55 5 19.996V8.004C5 7.45 5.45 7 6.004 7H7v8.996A3.007 3.007 0 0 0 10.004 19H15v.996ZM17.996 17h-7.992C9.45 17 9 16.55 9 15.996V4.004C9 3.45 9.45 3 10.004 3H14v3.001A2 2 0 0 0 15.999 8H19v7.996C19 16.55 18.55 17 17.996 17Z" fill="#C8C8C8"></path></svg>