<svg xmlns:xlink="http://www.w3.org/1999/xlink" xmlns="http://www.w3.org/2000/svg" aria-label="Escolher um GIF ou uma figurinha" class="input-icon-img" fill="currentColor" height="22" role="img" viewBox="0 0 24 24" width="22">
                                <title fill="#F9F9F9">Escolher um GIF ou uma figurinha</title>
                                <path d="M13.11 22H7.416A5.417 5.417 0 0 1 2 16.583V7.417A5.417 5.417 0 0 1 7.417 2h9.166A5.417 5.417 0 0 1 22 7.417v5.836a2.083 2.083 0 0 1-.626 1.488l-6.808 6.664A2.083 2.083 0 0 1 13.11 22Z" fill="none" stroke="#F9F9F9" stroke-linecap="round" stroke-linejoin="round" stroke-width="2px"></path>
                                <circle cx="8.238" cy="9.943" r="1.335" fill="#F9F9F9"></circle>
                                <circle cx="15.762" cy="9.943" r="1.335" fill="#F9F9F9"></circle>
                                <path d="M15.174 15.23a4.887 4.887 0 0 1-6.937-.301" fill="none" stroke="#F9F9F9" stroke-linecap="round" stroke-linejoin="round" stroke-width="2px"></path>
                                <path d="M22 10.833v1.629a1.25 1.25 0 0 1-1.25 1.25h-1.79a5.417 5.417 0 0 0-5.417 5.417v1.62a1.25 1.25 0 0 1-1.25 1.25H9.897" fill="none" stroke="#F9F9F9" stroke-linecap="round" stroke-linejoin="round" stroke-width="2px"></path>
                            </svg>