<svg xmlns="http://www.w3.org/2000/svg" width="736" height="736" viewBox="0 0 736 736">
<g>
<path d="M 0.00 0.00 L 736.00 0.00 L 736.00 736.00 L 0.00 736.00 ZM 209.28 551.46 C213.65,552.64 239.55,552.88 369.00,552.92 L 523.50 552.97 L 531.83 550.07 C551.35,543.28 565.14,528.84 571.63,508.38 L 574.00 500.92 L 574.00 399.07 C574.00,298.46 573.97,297.13 571.90,290.36 C565.44,269.25 551.56,254.86 531.00,247.97 C525.58,246.16 521.22,245.69 504.84,245.15 L 485.17 244.50 L 480.84 241.46 C474.86,237.26 472.05,231.75 471.05,222.27 C469.36,206.18 462.31,195.04 449.63,188.40 C439.82,183.26 436.52,183.04 369.50,183.02 C331.15,183.02 305.02,183.41 301.00,184.06 C292.10,185.49 284.99,188.95 278.67,194.93 C272.08,201.16 268.15,208.73 266.87,217.66 C264.60,233.44 262.21,238.29 254.58,242.61 C251.25,244.50 248.79,244.78 231.68,245.24 C214.36,245.70 211.79,246.00 205.21,248.33 C185.97,255.13 172.25,268.92 165.72,288.00 L 163.50 294.50 L 163.22 395.68 C163.21,399.27 163.20,402.73 163.19,406.09 C162.95,492.12 162.92,503.77 167.11,513.61 C167.93,515.54 168.91,517.40 170.09,519.73 C177.38,534.21 193.40,547.19 209.28,551.46 ZM 520.50 510.62 L 515.50 512.98 L 368.45 512.99 L 221.39 513.00 L 216.17 510.40 C210.26,507.45 206.73,503.35 205.05,497.50 C204.21,494.58 203.98,467.30 204.20,396.50 L 204.50 299.50 L 206.84 295.74 C208.12,293.67 211.27,290.75 213.84,289.24 C218.35,286.59 219.13,286.48 237.50,285.88 C261.06,285.10 267.55,283.45 279.83,275.12 C288.14,269.48 295.48,260.88 300.01,251.50 C303.47,244.32 307.00,231.47 307.00,226.04 C307.00,224.01 307.24,224.00 368.50,224.00 C402.33,224.00 430.00,224.25 430.00,224.56 C430.00,231.06 433.97,246.17 437.43,252.87 C442.62,262.91 454.08,273.98 465.00,279.51 C474.54,284.35 479.24,285.20 500.19,285.89 L 519.89 286.54 L 524.19 289.54 C526.70,291.28 529.44,294.39 530.75,296.98 L 533.00 301.42 L 533.00 398.74 C533.00,484.32 532.81,496.51 531.45,499.77 C529.30,504.93 526.32,507.88 520.50,510.62 ZM 352.39 469.46 C365.36,472.30 384.41,470.82 397.41,465.94 C410.88,460.89 426.23,449.15 434.49,437.56 C457.95,404.69 455.55,361.73 428.67,333.34 C411.97,315.69 392.12,307.00 368.50,307.00 C333.41,307.00 302.41,329.22 290.67,362.80 C287.93,370.63 287.58,372.98 287.22,386.26 C286.85,399.82 287.03,401.75 289.40,410.02 C292.62,421.24 296.68,429.44 303.60,438.71 C315.04,454.03 332.65,465.13 352.39,469.46 ZM 379.79 428.57 C373.32,430.29 362.88,430.30 357.50,428.60 C332.25,420.59 320.29,393.20 331.96,370.08 C335.79,362.50 345.12,353.88 352.72,350.91 C360.40,347.90 372.57,347.24 380.08,349.42 C404.45,356.50 416.33,383.12 405.60,406.57 C401.01,416.60 390.22,425.79 379.79,428.57 Z" fill="rgb(0,0,0)"/>
<path d="M 209.28 551.46 C193.40,547.19 177.38,534.21 170.09,519.73 C162.68,505.01 162.91,509.19 163.22,395.68 L 163.50 294.50 L 165.72 288.00 C172.25,268.92 185.97,255.13 205.21,248.33 C211.79,246.00 214.36,245.70 231.68,245.24 C248.79,244.78 251.25,244.50 254.58,242.61 C262.21,238.29 264.60,233.44 266.87,217.66 C268.15,208.73 272.08,201.16 278.67,194.93 C284.99,188.95 292.10,185.49 301.00,184.06 C305.02,183.41 331.15,183.02 369.50,183.02 C436.52,183.04 439.82,183.26 449.63,188.40 C462.31,195.04 469.36,206.18 471.05,222.27 C472.05,231.75 474.86,237.26 480.84,241.46 L 485.17 244.50 L 504.84 245.15 C521.22,245.69 525.58,246.16 531.00,247.97 C551.56,254.86 565.44,269.25 571.90,290.36 C573.97,297.13 574.00,298.46 574.00,399.07 L 574.00 500.92 L 571.63 508.38 C565.14,528.84 551.35,543.28 531.83,550.07 L 523.50 552.97 L 369.00 552.92 C239.55,552.88 213.65,552.64 209.28,551.46 ZM 520.50 510.62 C526.32,507.88 529.30,504.93 531.45,499.77 C532.81,496.51 533.00,484.32 533.00,398.74 L 533.00 301.42 L 530.75 296.98 C529.44,294.39 526.70,291.28 524.19,289.54 L 519.89 286.54 L 500.19 285.89 C479.24,285.20 474.54,284.35 465.00,279.51 C454.08,273.98 442.62,262.91 437.43,252.87 C433.97,246.17 430.00,231.06 430.00,224.56 C430.00,224.25 402.33,224.00 368.50,224.00 C307.24,224.00 307.00,224.01 307.00,226.04 C307.00,231.47 303.47,244.32 300.01,251.50 C295.48,260.88 288.14,269.48 279.83,275.12 C267.55,283.45 261.06,285.10 237.50,285.88 C219.13,286.48 218.35,286.59 213.84,289.24 C211.27,290.75 208.12,293.67 206.84,295.74 L 204.50 299.50 L 204.20 396.50 C203.98,467.30 204.21,494.58 205.05,497.50 C206.73,503.35 210.26,507.45 216.17,510.40 L 221.39 513.00 L 368.45 512.99 L 515.50 512.98 L 520.50 510.62 ZM 352.39 469.46 C332.65,465.13 315.04,454.03 303.60,438.71 C296.68,429.44 292.62,421.24 289.40,410.02 C287.03,401.75 286.85,399.82 287.22,386.26 C287.58,372.98 287.93,370.63 290.67,362.80 C302.41,329.22 333.41,307.00 368.50,307.00 C392.12,307.00 411.97,315.69 428.67,333.34 C455.55,361.73 457.95,404.69 434.49,437.56 C426.23,449.15 410.88,460.89 397.41,465.94 C384.41,470.82 365.36,472.30 352.39,469.46 ZM 379.79 428.57 C390.22,425.79 401.01,416.60 405.60,406.57 C416.33,383.12 404.45,356.50 380.08,349.42 C372.57,347.24 360.40,347.90 352.72,350.91 C345.12,353.88 335.79,362.50 331.96,370.08 C320.29,393.20 332.25,420.59 357.50,428.60 C362.88,430.30 373.32,430.29 379.79,428.57 Z" fill="rgb(254,254,254)"/>
</g>
</svg>