<svg width="62" height="62" viewBox="0 0 62 62" fill="none" xmlns="http://www.w3.org/2000/svg">
<g clip-path="url(#clip0_712_1224)">
<path fill-rule="evenodd" clip-rule="evenodd" d="M31.0109 2.30423C31.0109 2.47139 30.6601 2.69623 30.2313 2.80384C29.759 2.922 29.3784 3.29105 29.2656 3.74011C29.1631 4.14761 28.9546 4.481 28.8024 4.481C28.6498 4.481 28.5252 4.69033 28.5252 4.94618C28.5252 5.20204 28.6498 5.41137 28.8024 5.41137C28.9546 5.41137 29.1712 5.77701 29.2836 6.22421C29.5077 7.11551 30.157 7.89237 30.6781 7.89237C30.8611 7.89237 31.0109 8.1017 31.0109 8.35756C31.0109 8.61341 31.2206 8.82274 31.4769 8.82274C31.7332 8.82274 31.943 9.03208 31.943 9.28793C31.943 9.54378 32.1527 9.75312 32.409 9.75312C32.6654 9.75312 32.8751 9.96245 32.8751 10.2183C32.8751 10.4742 33.0149 10.6835 33.1858 10.6835C33.3567 10.6835 33.4965 10.823 33.4965 10.9936C33.4965 11.1924 30.6038 11.3037 25.4402 11.3037C18.6935 11.3037 17.3084 11.3794 16.9182 11.7689C16.6618 12.0248 16.0926 12.2341 15.653 12.2341C15.2136 12.2341 14.8542 12.3585 14.8542 12.5107C14.8542 12.6627 14.4773 12.8817 14.0165 12.997C13.5557 13.1124 12.7261 13.6858 12.1731 14.271C11.62 14.8565 11.0182 15.3354 10.8358 15.3354C10.6534 15.3354 10.5043 15.4814 10.5043 15.6604C10.5043 15.839 10.1644 16.2995 9.74895 16.6838C9.33353 17.068 8.89885 17.7593 8.78327 18.2198C8.66738 18.6801 8.44802 19.0569 8.29577 19.0569C8.14322 19.0569 8.01863 19.4157 8.01863 19.8542C8.01863 20.293 7.8089 20.8612 7.55257 21.117C7.16232 21.5065 7.08651 22.8863 7.08651 29.5986V37.615L8.01863 37.8194C8.53129 37.9317 8.95074 38.1522 8.95074 38.3091C8.95074 38.7312 10.4574 38.6558 10.9943 38.2071C12.4207 37.0146 12.3685 37.3201 12.3685 30.177C12.3685 24.5259 12.4487 23.2746 12.8346 22.8891C13.0909 22.6332 13.3006 22.0849 13.3006 21.6709C13.3006 21.2566 13.4404 20.9176 13.6113 20.9176C13.7822 20.9176 13.922 20.7641 13.922 20.5765C13.922 20.1327 15.932 18.1265 16.3766 18.1265C16.5646 18.1265 16.7184 17.9885 16.7184 17.8201C16.7184 17.6514 17.2777 17.4244 17.9612 17.3152C18.6448 17.206 19.204 16.9952 19.204 16.8463C19.204 16.6974 22.4198 16.5759 26.3503 16.5759C30.9074 16.5759 33.4965 16.6881 33.4965 16.886C33.4965 17.0566 33.3567 17.1961 33.1858 17.1961C33.0149 17.1961 32.8751 17.4054 32.8751 17.6613C32.8751 17.9172 32.6654 18.1265 32.409 18.1265C32.1527 18.1265 31.943 18.3358 31.943 18.5917C31.943 18.8475 31.7923 19.0569 31.6083 19.0569C31.1125 19.0569 29.5738 20.6828 29.3228 21.4724C29.2029 21.8495 28.9745 22.1581 28.8151 22.1581C28.6557 22.1581 28.5252 22.4372 28.5252 22.7784C28.5252 23.1195 28.6498 23.3986 28.8024 23.3986C28.9546 23.3986 29.1671 23.7475 29.2743 24.1739C29.3815 24.6003 29.6164 24.9492 29.796 24.9492C29.9759 24.9492 30.3329 25.1586 30.5892 25.4144C31.1165 25.941 32.5644 26.0474 32.5644 25.5599C32.5644 25.3837 32.8089 25.1474 33.1081 25.0345C33.806 24.7706 34.4286 24.1559 34.4286 23.7307C34.4286 23.5481 34.6383 23.3986 34.8947 23.3986C35.151 23.3986 35.3607 23.1893 35.3607 22.9334C35.3607 22.6776 35.5705 22.4682 35.8268 22.4682C36.0831 22.4682 36.2929 22.2589 36.2929 22.003C36.2929 21.7472 36.4426 21.5379 36.6256 21.5379C37.0559 21.5379 37.8464 20.7489 37.8464 20.3194C37.8464 20.1367 38.0561 19.9872 38.3124 19.9872C38.5688 19.9872 38.7785 19.7779 38.7785 19.522C38.7785 19.2662 38.9882 19.0569 39.2446 19.0569C39.5009 19.0569 39.7106 18.8475 39.7106 18.5917C39.7106 18.3358 39.8604 18.1265 40.0434 18.1265C40.4737 18.1265 41.2641 17.3375 41.2641 16.908C41.2641 16.7253 41.4739 16.5759 41.7302 16.5759C41.9865 16.5759 42.1963 16.3665 42.1963 16.1107C42.1963 15.8548 42.406 15.6455 42.6623 15.6455C43.0203 15.6455 43.1284 15.2491 43.1284 13.9398C43.1284 12.6305 43.0203 12.2341 42.6623 12.2341C42.406 12.2341 42.1963 12.0248 42.1963 11.7689C42.1963 11.5131 41.9865 11.3037 41.7302 11.3037C41.4739 11.3037 41.2641 11.1543 41.2641 10.9716C41.2641 10.5421 40.4737 9.75312 40.0434 9.75312C39.8604 9.75312 39.7106 9.54378 39.7106 9.28793C39.7106 9.03208 39.5009 8.82274 39.2446 8.82274C38.9882 8.82274 38.7785 8.61341 38.7785 8.35756C38.7785 8.1017 38.5688 7.89237 38.3124 7.89237C38.0561 7.89237 37.8464 7.74289 37.8464 7.56023C37.8464 7.1307 37.0559 6.34175 36.6256 6.34175C36.4426 6.34175 36.2929 6.13241 36.2929 5.87656C36.2929 5.62071 36.0831 5.41137 35.8268 5.41137C35.5705 5.41137 35.3607 5.20204 35.3607 4.94618C35.3607 4.69033 35.151 4.481 34.8947 4.481C34.6383 4.481 34.4286 4.33152 34.4286 4.14885C34.4286 3.72367 33.806 3.10901 33.1081 2.84509C32.8089 2.7322 32.5644 2.49589 32.5644 2.31974C32.5644 2.1439 32.2148 2 31.7876 2C31.3604 2 31.0109 2.13677 31.0109 2.30423ZM49.8514 25.4144C49.7532 25.6703 49.4037 25.8796 49.0747 25.8796C48.7459 25.8796 48.392 26.1004 48.2883 26.3702C48.1845 26.64 48.0997 29.8597 48.0997 33.5251C48.0997 39.0357 48.0189 40.2703 47.6336 40.6549C47.3773 40.9107 47.1676 41.4699 47.1676 41.8975C47.1676 42.6846 44.7742 45.4175 44.085 45.4175C43.9008 45.4175 43.7498 45.6268 43.7498 45.8826C43.7498 46.2185 43.4046 46.3478 42.507 46.3478C41.8234 46.3478 41.2641 46.4874 41.2641 46.658C41.2641 46.8558 38.675 46.9681 34.1179 46.9681C29.5608 46.9681 26.9717 46.8558 26.9717 46.658C26.9717 46.4874 27.1115 46.3478 27.2824 46.3478C27.4533 46.3478 27.5931 46.1385 27.5931 45.8826C27.5931 45.6268 27.7519 45.4175 27.9457 45.4175C28.1399 45.4175 28.6225 45.0686 29.0186 44.6421C29.4144 44.2157 29.8849 43.8668 30.0638 43.8668C30.2431 43.8668 30.3894 43.6693 30.3894 43.4274C30.3894 43.1858 30.4945 42.9417 30.6225 42.8847C30.7505 42.8279 31.0876 42.3382 31.3713 41.7968C31.8522 40.8791 31.8522 40.7374 31.3713 39.7136C31.0087 38.9411 30.6479 38.6118 30.1564 38.605C29.7718 38.5994 29.4573 38.4552 29.4573 38.2846C29.4573 38.114 29.2476 37.9745 28.9913 37.9745C28.7349 37.9745 28.5252 38.114 28.5252 38.2846C28.5252 38.4552 28.1058 38.5947 27.5931 38.5947C27.0804 38.5947 26.661 38.7442 26.661 38.9269C26.661 39.3564 25.8705 40.1453 25.4402 40.1453C25.2572 40.1453 25.1074 40.3547 25.1074 40.6105C25.1074 40.8664 24.8977 41.0757 24.6414 41.0757C24.3851 41.0757 24.1753 41.285 24.1753 41.5409C24.1753 41.7968 23.9656 42.0061 23.7093 42.0061C23.4529 42.0061 23.2432 42.1556 23.2432 42.3382C23.2432 42.7678 22.4528 43.5567 22.0224 43.5567C21.8394 43.5567 21.6897 43.766 21.6897 44.0219C21.6897 44.2778 21.48 44.4871 21.2236 44.4871C20.9673 44.4871 20.7576 44.6964 20.7576 44.9523C20.7576 45.2081 20.5478 45.4175 20.2915 45.4175C20.0352 45.4175 19.8254 45.5669 19.8254 45.7496C19.8254 46.1791 19.035 46.9681 18.6047 46.9681C18.4217 46.9681 18.2719 47.1774 18.2719 47.4333C18.2719 47.6891 18.0622 47.8985 17.8059 47.8985C17.4504 47.8985 17.3404 48.2849 17.3429 49.5266C17.3457 51.0348 17.4371 51.2348 18.5826 52.2402C19.2628 52.8372 19.8208 53.5002 19.8223 53.7133C19.8242 53.9267 19.96 54.101 20.1243 54.101C20.5422 54.101 23.2432 56.7628 23.2432 57.1746C23.2432 57.3604 23.3871 57.5123 23.5629 57.5123C23.7388 57.5123 24.7784 58.4194 25.8727 59.5281C27.5835 61.2608 28.0184 61.5439 28.9708 61.5439C29.5801 61.5439 30.0787 61.4044 30.0787 61.2338C30.0787 61.0633 30.2773 60.9237 30.5203 60.9237C30.7629 60.9237 31.0537 60.505 31.1662 59.9933C31.2787 59.4816 31.4996 59.0629 31.6568 59.0629C31.8143 59.0629 31.943 58.8536 31.943 58.5978C31.943 58.3419 31.8059 58.1326 31.6382 58.1326C31.4707 58.1326 31.2457 57.7837 31.1386 57.3573C31.0314 56.9308 30.8188 56.582 30.6666 56.582C30.514 56.582 30.3894 56.3726 30.3894 56.1168C30.3894 55.8609 30.1797 55.6516 29.9234 55.6516C29.6671 55.6516 29.4573 55.4422 29.4573 55.1864C29.4573 54.9305 29.3066 54.7212 29.1227 54.7212C28.688 54.7212 26.9717 53.0081 26.9717 52.5742C26.9717 52.3438 29.5757 52.2402 35.3607 52.2402C40.7462 52.2402 43.7498 52.1292 43.7498 51.9301C43.7498 51.7595 44.0195 51.62 44.3491 51.62C44.6785 51.62 45.1579 51.4106 45.4142 51.1548C45.6706 50.8989 46.1742 50.6896 46.5337 50.6896C46.8932 50.6896 47.2676 50.4802 47.3658 50.2244C47.4643 49.9685 47.7396 49.7592 47.9776 49.7592C48.2156 49.7592 48.4104 49.629 48.4104 49.4699C48.4104 49.3108 48.6829 49.0943 49.0159 48.9889C49.349 48.8834 49.7147 48.5032 49.8291 48.1444C49.9431 47.7853 50.3697 47.1833 50.777 46.8065C51.1844 46.43 51.5174 45.8237 51.5174 45.4593C51.5174 45.0776 51.7147 44.7972 51.9835 44.7972C52.2911 44.7972 52.4496 44.4899 52.4496 43.8926C52.4496 43.3951 52.6245 42.9303 52.8379 42.8592C53.1316 42.7619 53.249 40.8183 53.3195 34.885C53.4087 27.3657 53.3866 27.0159 52.7885 26.4598C52.4455 26.1407 52.0192 25.8796 51.8412 25.8796C51.6632 25.8796 51.5174 25.6703 51.5174 25.4144C51.5174 25.1307 51.2275 24.9492 50.7739 24.9492C50.365 24.9492 49.9499 25.1586 49.8514 25.4144ZM75.5437 36.5789C75.5452 37.7729 75.6012 38.2232 75.6686 37.58C75.7357 36.9365 75.7348 35.9596 75.6661 35.4091C75.5974 34.8583 75.5424 35.3849 75.5437 36.5789ZM11.0238 85.9663C22.8443 86.0112 42.2789 86.0112 54.2119 85.9663C66.1445 85.9213 56.4732 85.8844 32.7197 85.8844C8.96628 85.8844 -0.79703 85.9213 11.0238 85.9663Z" fill="white"/>
</g>
<defs>
<clipPath id="clip0_712_1224">
<rect width="62" height="62" fill="white"/>
</clipPath>
</defs>
</svg>
